<svg xmlns="http://www.w3.org/2000/svg" viewBox="0 0 859 468" role="img" aria-label="SAS Tutors · Learn, Grow, Succeed"><title>SAS Tutors · Learn, Grow, Succeed</title><style>.lg-s{fill:#0F3D3E}.lg-a{fill:#5B6B32}.lg-hl{stroke:#CBD69E}.lg-tag{fill:#4E5F5C}.lg-rule{stroke:#BFD8D2}.lg-tile{fill:#0F3D3E}.lg-mark{fill:#fff}</style><path class="lg-hl" pathLength="1" fill="none" stroke-width="51.0" stroke-linecap="round" d="M333.4 210.0Q429.4 204.0 525.4 180.0"/><path class="lg-s" transform="translate(0.0 300.0) scale(0.4545 -0.4545)" d="M299 -14Q229 -14 176.5 2.0Q124 18 89.0 48.0Q54 78 37.5 120.5Q21 163 23 215L173 248Q175 202 192.5 173.5Q210 145 240.0 131.5Q270 118 307 118Q337 118 360.0 125.5Q383 133 396.5 146.5Q410 160 410 178Q410 202 392.0 217.5Q374 233 342.5 244.0Q311 255 271 266Q228 278 185.5 292.5Q143 307 108.0 329.0Q73 351 51.5 386.0Q30 421 30 473Q30 537 62.5 582.0Q95 627 152.5 650.5Q210 674 284 674Q362 674 423.0 647.5Q484 621 517.0 570.0Q550 519 543 445L395 421Q396 451 389.0 474.0Q382 497 367.5 513.0Q353 529 331.0 537.5Q309 546 279 546Q248 546 227.5 538.0Q207 530 196.5 516.0Q186 502 186 484Q186 463 202.0 449.0Q218 435 248.0 424.5Q278 414 319 403Q362 391 405.5 376.5Q449 362 486.0 338.5Q523 315 545.5 278.0Q568 241 568 184Q568 118 533.5 74.0Q499 30 438.5 8.0Q378 -14 299 -14Z"/><path class="lg-a" d="M282.4 300.0L411.4 0.0H447.4L576.4 300.0H499.9L429.4 136.0L358.9 300.0Z"/><path class="lg-s" transform="translate(592.9 300.0) scale(0.4545 -0.4545)" d="M299 -14Q229 -14 176.5 2.0Q124 18 89.0 48.0Q54 78 37.5 120.5Q21 163 23 215L173 248Q175 202 192.5 173.5Q210 145 240.0 131.5Q270 118 307 118Q337 118 360.0 125.5Q383 133 396.5 146.5Q410 160 410 178Q410 202 392.0 217.5Q374 233 342.5 244.0Q311 255 271 266Q228 278 185.5 292.5Q143 307 108.0 329.0Q73 351 51.5 386.0Q30 421 30 473Q30 537 62.5 582.0Q95 627 152.5 650.5Q210 674 284 674Q362 674 423.0 647.5Q484 621 517.0 570.0Q550 519 543 445L395 421Q396 451 389.0 474.0Q382 497 367.5 513.0Q353 529 331.0 537.5Q309 546 279 546Q248 546 227.5 538.0Q207 530 196.5 516.0Q186 502 186 484Q186 463 202.0 449.0Q218 435 248.0 424.5Q278 414 319 403Q362 391 405.5 376.5Q449 362 486.0 338.5Q523 315 545.5 278.0Q568 241 568 184Q568 118 533.5 74.0Q499 30 438.5 8.0Q378 -14 299 -14Z"/><path class="lg-s" transform="translate(163.2 462.3) scale(0.1732 -0.1732)" d="M177 0V660H339V0ZM14 522V660H502V522Z"/><path class="lg-s" transform="translate(257.7 462.3) scale(0.1732 -0.1732)" d="M200 -14Q114 -14 72.5 46.0Q31 106 31 230V528H193V232Q193 174 209.5 151.0Q226 128 257 128Q279 128 297.5 139.5Q316 151 330.0 174.5Q344 198 351.5 235.0Q359 272 359 324V528H521V238V0H383V206H376Q370 129 349.0 80.5Q328 32 291.0 9.0Q254 -14 200 -14Z"/><path class="lg-s" transform="translate(359.4 462.3) scale(0.1732 -0.1732)" d="M247 -12Q154 -12 108.5 35.5Q63 83 63 183V402H5V504H8Q70 512 96.0 545.5Q122 579 128 647V649H223V528H344V398H223V198Q223 160 241.5 144.0Q260 128 287 128Q301 128 316.0 132.0Q331 136 344 143V2Q313 -7 289.0 -9.5Q265 -12 247 -12Z"/><path class="lg-s" transform="translate(428.3 462.3) scale(0.1732 -0.1732)" d="M282 -14Q206 -14 147.0 16.5Q88 47 55.0 108.5Q22 170 22 263Q22 360 56.5 421.5Q91 483 150.5 512.5Q210 542 285 542Q363 542 421.5 511.5Q480 481 512.5 419.5Q545 358 545 264Q545 167 510.5 105.5Q476 44 416.5 15.0Q357 -14 282 -14ZM286 105Q317 105 338.0 122.5Q359 140 370.0 174.0Q381 208 381 255Q381 307 369.0 342.5Q357 378 334.5 397.0Q312 416 280 416Q250 416 229.0 398.5Q208 381 197.0 347.0Q186 313 186 265Q186 189 212.5 147.0Q239 105 286 105Z"/><path class="lg-s" transform="translate(531.7 462.3) scale(0.1732 -0.1732)" d="M36 0V287V528H176V318H184Q190 402 207.5 450.5Q225 499 251.5 519.5Q278 540 311 540Q329 540 348.5 535.0Q368 530 387 519L379 339Q357 352 336.0 358.5Q315 365 296 365Q264 365 242.0 347.0Q220 329 208.5 294.0Q197 259 197 209V0Z"/><path class="lg-s" transform="translate(606.1 462.3) scale(0.1732 -0.1732)" d="M267 -14Q214 -14 168.5 -3.5Q123 7 89.5 30.0Q56 53 38.5 91.5Q21 130 24 185L165 197Q167 164 180.0 142.5Q193 121 216.0 111.0Q239 101 272 101Q303 101 325.5 111.5Q348 122 348 147Q348 160 340.0 168.5Q332 177 310.5 184.5Q289 192 248 202Q197 215 156.0 228.0Q115 241 86.0 259.0Q57 277 42.0 303.5Q27 330 27 369Q27 424 56.5 462.5Q86 501 138.0 521.5Q190 542 258 542Q319 542 372.0 523.0Q425 504 455.5 461.0Q486 418 478 347L340 334Q343 363 332.0 383.5Q321 404 300.0 414.5Q279 425 249 425Q215 425 196.5 412.5Q178 400 178 381Q178 366 189.5 355.5Q201 345 225.5 337.5Q250 330 289 321Q323 314 360.0 303.0Q397 292 429.0 273.5Q461 255 481.0 225.0Q501 195 501 149Q501 100 474.0 63.0Q447 26 395.0 6.0Q343 -14 267 -14Z"/></svg>
